<svg xmlns="http://www.w3.org/2000/svg" width="256" height="256" viewBox="0 0 100 100"><rect width="100" height="100" rx="20" fill="#4a4a4a"></rect><path fill="#fff" d="M27.05 36.14L27.05 36.14Q31.19 36.14 34.79 37.49Q38.39 38.84 41.04 41.54Q43.70 44.24 45.18 48.38Q46.67 52.52 46.67 58.10L46.67 58.10Q46.67 63.77 45.14 67.91Q43.61 72.05 40.86 74.75Q38.12 77.45 34.25 78.75Q30.38 80.06 25.79 80.06L25.79 80.06Q21.38 80.06 17.82 79.03Q14.27 77.99 12.02 76.64L12.02 76.64Q10.13 75.47 9.41 74.34Q8.69 73.22 8.69 71.33L8.69 71.33L8.69 20.57Q9.14 20.39 10.08 20.17Q11.03 19.94 12.11 19.94L12.11 19.94Q15.89 19.94 15.89 23.18L15.89 23.18L15.89 39.29Q17.87 38.03 20.61 37.09Q23.36 36.14 27.05 36.14ZM25.97 42.08L25.97 42.08Q22.82 42.08 20.25 43.21Q17.69 44.33 15.89 45.86L15.89 45.86L15.89 71.33Q17.24 72.32 19.80 73.22Q22.37 74.12 25.79 74.12L25.79 74.12Q28.85 74.12 31.32 73.17Q33.80 72.23 35.60 70.25Q37.40 68.27 38.39 65.25Q39.38 62.24 39.38 58.10L39.38 58.10Q39.38 53.96 38.39 50.90Q37.40 47.84 35.60 45.91Q33.80 43.97 31.32 43.02Q28.85 42.08 25.97 42.08ZM56.66 72.41L56.66 72.41Q59.45 68.63 62.51 65.03Q65.57 61.43 68.63 57.65L68.63 57.65Q64.85 53.06 61.61 48.97Q58.37 44.87 54.95 40.46L54.95 40.46Q55.31 38.66 56.25 37.67Q57.20 36.68 58.73 36.68L58.73 36.68Q60.26 36.68 61.11 37.45Q61.97 38.21 62.96 39.47L62.96 39.47Q65.30 42.62 67.77 46.18Q70.25 49.73 72.95 53.24L72.95 53.24Q76.28 49.01 79.25 45.19Q82.22 41.36 85.37 36.77L85.37 36.77Q85.82 36.68 86.36 36.68L86.36 36.68Q88.25 36.68 89.33 37.54Q90.41 38.39 90.41 39.83L90.41 39.83Q90.41 40.82 90.00 41.72Q89.60 42.62 88.70 43.79L88.70 43.79Q85.91 47.21 82.98 50.77Q80.06 54.32 77.18 57.74L77.18 57.74Q80.69 62.33 84.24 66.78Q87.80 71.24 91.31 75.74L91.31 75.74Q91.13 77.45 90.14 78.44Q89.15 79.43 87.53 79.43L87.53 79.43Q86 79.43 85.05 78.67Q84.11 77.90 82.85 76.28L82.85 76.28Q80.42 73.04 77.85 69.39Q75.29 65.75 72.77 62.33L72.77 62.33Q69.62 66.47 66.42 70.79Q63.23 75.11 60.26 79.34L60.26 79.34L59.00 79.34Q56.93 79.34 55.89 78.44Q54.86 77.54 54.86 76.19L54.86 76.19Q54.86 75.47 55.17 74.70Q55.49 73.94 56.66 72.41Z"></path></svg>